<svg width="379" height="140" fill="none" xmlns="http://www.w3.org/2000/svg"><path d="M274.443 2.653H173.594c-16.513 0-33.832-.904-48.352 3.269-21.401 6.15-37.692 15.89-52.334 24.991C55.373 41.81 36.879 54.691 30.406 68c-4.566 9.39-3.762 19.514-3.006 29.06.87 10.995 7.987 23.675 28.605 30.694 11.224 3.821 24.918 4.97 38.681 5.376 22.491.664 45.778.214 68.1-1.09 28.839-1.684 56.774-5.271 84.027-9.735 27.164-4.449 55.74-9.462 77.851-18.053 21.764-8.456 33.477-19.89 42.582-31.82 7.152-9.37 11.694-18.28 8.939-28.297-2.532-9.211-18.832-15.796-36.568-19.76-26.058-5.824-56.754-8.622-84.678-12.205-40.659-5.22-84.367-14.058-127.584-8.282-26.184 3.499-48.973 13.622-66.962 22.34-21.377 10.358-37.804 21.714-48.596 34.98C6.02 68.307 2.51 75.659 2.37 83.22c-.15 8.142-2.145 17.124 4.957 24.81 25.6 27.704 102.582 29.858 160.335 29.967 47.669.091 102.042-2.14 134.248-20.269 10.705-6.025 13.434-12.403 16.497-19.76 4.491-10.791 10.064-21.244 11.295-32.256.613-5.48 2.316-12.074-1.137-17.436-3.168-4.919-12.014-9.96-19.097-13.876-7.037-3.89-14.818-8.174-23.404-11.406-10.582-3.983-25.044-5.669-37.626-7.918-8.221-1.47-17.634-4.577-26.736-4.577-18.512 0-33.5 6.193-48.189 10.461" stroke="#000" stroke-width="3" stroke-linecap="round"/></svg>