<svg width="52" height="60" viewBox="0 0 52 60" fill="none" xmlns="http://www.w3.org/2000/svg">
<path d="M29.5 4C29.5 2.067 27.933 0.5 26 0.5C24.067 0.5 22.5 2.067 22.5 4L29.5 4ZM23.5251 58.4749C24.892 59.8417 27.108 59.8417 28.4749 58.4749L50.7487 36.201C52.1156 34.8342 52.1156 32.6181 50.7487 31.2513C49.3819 29.8844 47.1658 29.8844 45.799 31.2513L26 51.0502L6.20101 31.2513C4.83417 29.8844 2.61809 29.8844 1.25126 31.2513C-0.115575 32.6181 -0.115575 34.8342 1.25126 36.201L23.5251 58.4749ZM22.5 4L22.5 56H29.5L29.5 4L22.5 4Z" fill="black"/>
</svg>
