<svg width="379" height="140" viewBox="0 0 379 140" fill="none" xmlns="http://www.w3.org/2000/svg">
<path d="M274.443 2.65259C256.321 2.65259 238.199 2.65259 220.077 2.65259C204.583 2.65259 189.088 2.65259 173.594 2.65259C157.081 2.65259 139.762 1.74929 125.242 5.92179C103.841 12.0713 87.5502 21.8128 72.9076 30.913C55.3732 41.8104 36.8795 54.6906 30.4064 68.0003C25.84 77.3895 26.6437 87.5139 27.3996 97.0598C28.2704 108.055 35.3869 120.735 56.0046 127.754C67.2292 131.575 80.9233 132.724 94.6864 133.13C117.177 133.794 140.464 133.344 162.786 132.04C191.625 130.356 219.56 126.769 246.813 122.305C273.977 117.856 302.553 112.843 324.664 104.252C346.428 95.7957 358.141 84.3611 367.246 72.4318C374.398 63.0628 378.94 54.1514 376.185 44.1351C373.653 34.924 357.353 28.3387 339.617 24.3746C313.559 18.5509 282.863 15.7534 254.939 12.1696C214.28 6.95116 170.572 -1.88779 127.355 3.88762C101.171 7.38675 78.3818 17.5099 60.3929 26.2271C39.0155 36.5864 22.5889 47.9418 11.7969 61.2076C6.02146 68.307 2.51007 75.6595 2.37028 83.2202C2.21975 91.3618 0.22545 100.344 7.3274 108.03C32.9276 135.734 109.909 137.888 167.662 137.997C215.331 138.088 269.704 135.857 301.91 117.728C312.615 111.703 315.344 105.325 318.407 97.9679C322.898 87.177 328.471 76.7237 329.702 65.7118C330.315 60.2324 332.018 53.6376 328.565 48.2761C325.397 43.357 316.551 38.3164 309.468 34.4002C302.431 30.5097 294.65 26.2262 286.064 22.9943C275.482 19.0111 261.02 17.3251 248.438 15.0755C240.217 13.6055 230.804 10.4987 221.702 10.4987C203.19 10.4987 188.202 16.6923 173.513 20.9601" stroke="black" stroke-width="3" stroke-linecap="round"/>
</svg>
