<svg xmlns="http://www.w3.org/2000/svg" xmlns:xlink="http://www.w3.org/1999/xlink">
  <symbol id="menu" viewBox="0 0 20 14"><path fill="#231F20" d="M20 0H0v2h20V0ZM20 6H0v2h20V6ZM20 12H0v2h20v-2Z"/></symbol>
  <symbol id="cross" viewBox="0 0 21 20"><path fill="#000" d="M21 1.366 19.566 0 10.55 8.585 1.434 0 0 1.366l9.015 8.683L0 18.634 1.434 20l9.117-8.585L19.566 20 21 18.634l-9.015-8.585L21 1.366Z"/></symbol>
  <symbol id="arrow" viewBox="0 0 52 60"><path fill="#000" d="M29.5 4a3.5 3.5 0 1 0-7 0h7Zm-5.975 54.475a3.5 3.5 0 0 0 4.95 0L50.749 36.2a3.5 3.5 0 1 0-4.95-4.95L26 51.051 6.201 31.25a3.5 3.5 0 1 0-4.95 4.95l22.274 22.274ZM22.5 4v52h7V4h-7Z"/></symbol>
  <symbol id="delete" viewBox="0 0 12 12"><mask id="c" width="12" height="12" x=".494" y=".433" fill="#000" maskUnits="userSpaceOnUse"><path fill="#fff" d="M.494.433h12v12h-12z"/><path fill-rule="evenodd" d="M1.757 10.3a.892.892 0 0 0 1.273 0L6 7.29l2.913 2.953a.892.892 0 0 0 1.273 0 .921.921 0 0 0 0-1.29L7.273 6l2.97-3.01a.921.921 0 0 0 0-1.29.892.892 0 0 0-1.274 0L6 4.71 3.088 1.758a.892.892 0 0 0-1.273 0 .921.921 0 0 0 0 1.29L4.727 6l-2.97 3.01a.921.921 0 0 0 0 1.29Z" clip-rule="evenodd"/></mask><g fill-rule="evenodd" clip-rule="evenodd" filter="url(#a)"><path fill="#0D0D0E" d="M1.757 10.3a.892.892 0 0 0 1.273 0L6 7.29l2.913 2.953a.892.892 0 0 0 1.273 0 .921.921 0 0 0 0-1.29L7.273 6l2.97-3.01a.921.921 0 0 0 0-1.29.892.892 0 0 0-1.274 0L6 4.71 3.088 1.758a.892.892 0 0 0-1.273 0 .921.921 0 0 0 0 1.29L4.727 6l-2.97 3.01a.921.921 0 0 0 0 1.29Z"/><path fill="url(#b)" fill-opacity=".4" d="M1.757 10.3a.892.892 0 0 0 1.273 0L6 7.29l2.913 2.953a.892.892 0 0 0 1.273 0 .921.921 0 0 0 0-1.29L7.273 6l2.97-3.01a.921.921 0 0 0 0-1.29.892.892 0 0 0-1.274 0L6 4.71 3.088 1.758a.892.892 0 0 0-1.273 0 .921.921 0 0 0 0 1.29L4.727 6l-2.97 3.01a.921.921 0 0 0 0 1.29Z" style="mix-blend-mode:soft-light"/></g><path fill="#fff" fill-opacity=".4" d="m3.03 10.3-.711-.702.711.703Zm-1.273 0-.712.703.712-.702ZM6 7.29l.712-.702L6 5.867l-.712.721.712.703Zm2.913 2.953.712-.702-.712.702Zm1.273 0-.712-.702.712.702Zm0-1.29.712-.703-.712.703ZM7.273 6l-.712-.702L5.868 6l.693.702L7.273 6Zm2.97-3.01-.712-.702.711.702Zm0-1.29-.712.702.712-.702Zm-1.274 0L8.258.998l.711.702ZM6 4.71l-.712.702.712.722.712-.722L6 4.71ZM3.088 1.758l-.712.702.712-.702Zm-1.273 0 .712.702-.712-.702Zm0 1.29-.712.703.712-.703ZM4.727 6l.712.703L6.132 6l-.693-.702L4.727 6Zm-2.97 3.01.712.703-.712-.703Zm.562.588c.04-.04.11-.04.15 0l-1.424 1.405a1.892 1.892 0 0 0 2.697 0L2.32 9.598Zm2.97-3.01-2.97 3.01 1.423 1.405 2.97-3.01-1.424-1.405Zm4.336 2.953L6.712 6.588 5.288 7.993l2.913 2.952 1.424-1.404Zm-.151 0c.04-.04.11-.04.15 0l-1.423 1.404a1.892 1.892 0 0 0 2.697 0L9.474 9.541Zm0 .114a.084.084 0 0 1-.024-.057c0-.017.006-.04.024-.057l1.424 1.404a1.921 1.921 0 0 0 0-2.695L9.474 9.655ZM6.561 6.702l2.913 2.953 1.424-1.405-2.913-2.952-1.424 1.404Zm2.97-4.414-2.97 3.01 1.424 1.404 2.97-3.01L9.53 2.289Zm0 .114a.084.084 0 0 1-.025-.057c0-.017.007-.04.025-.057l1.423 1.405a1.921 1.921 0 0 0 0-2.695L9.531 2.402Zm.15 0c-.04.04-.11.04-.15 0L10.954.998a1.892 1.892 0 0 0-2.696 0L9.68 2.402Zm-2.969 3.01 2.97-3.01L8.257.998l-2.97 3.01 1.424 1.404ZM2.376 2.46l2.912 2.952 1.424-1.405L3.8 1.055 2.376 2.46Zm.15 0c-.04.04-.11.04-.15 0L3.8 1.055a1.892 1.892 0 0 0-2.697 0L2.527 2.46Zm0-.114c.018.018.025.04.025.057s-.007.04-.024.057L1.103 1.055a1.921 1.921 0 0 0 0 2.696l1.423-1.405ZM5.44 5.298 2.526 2.346 1.103 3.75l2.912 2.952L5.44 5.298Zm-2.97 4.415 2.97-3.01-1.424-1.405-2.97 3.01L2.47 9.713Zm0-.115c.018.018.025.041.025.058 0 .016-.007.039-.025.057L1.046 8.308a1.921 1.921 0 0 0 0 2.695l1.423-1.405Z" mask="url(#c)"/><defs><linearGradient id="b" x1="15.459" x2="6.312" y1="6" y2="-3.916" gradientUnits="userSpaceOnUse"><stop offset="0"/><stop offset="1" stop-color="#fff"/></linearGradient><filter id="a" width="13.013" height="13.135" x="-.506" y="-.567" color-interpolation-filters="sRGB" filterUnits="userSpaceOnUse"><feFlood flood-opacity="0" result="BackgroundImageFix"/><feBlend in="SourceGraphic" in2="BackgroundImageFix" result="shape"/><feColorMatrix in="SourceAlpha" result="hardAlpha" values="0 0 0 0 0 0 0 0 0 0 0 0 0 0 0 0 0 0 1 0"/><feOffset dx="1" dy="1"/><feGaussianBlur stdDeviation="1"/><feComposite in2="hardAlpha" k2="-1" k3="1" operator="arithmetic"/><feColorMatrix values="0 0 0 0 0.65098 0 0 0 0 0.670588 0 0 0 0 0.741176 0 0 0 1 0"/><feBlend in2="shape" result="effect1_innerShadow_474_762"/><feColorMatrix in="SourceAlpha" result="hardAlpha" values="0 0 0 0 0 0 0 0 0 0 0 0 0 0 0 0 0 0 1 0"/><feOffset dx="-1" dy="-1"/><feGaussianBlur stdDeviation="1"/><feComposite in2="hardAlpha" k2="-1" k3="1" operator="arithmetic"/><feColorMatrix values="0 0 0 0 0.980392 0 0 0 0 0.984314 0 0 0 0 1 0 0 0 1 0"/><feBlend in2="effect1_innerShadow_474_762" result="effect2_innerShadow_474_762"/></filter></defs></symbol>
  <symbol id="modal" viewBox="0 0 38 38"><rect width="36" height="36" x="1" y="1" stroke="#000" stroke-width="2" rx="18"/><path fill="#000" d="M17.503 23.215v-.307c.006-1.055.09-1.896.253-2.522.17-.627.414-1.133.735-1.519a5.79 5.79 0 0 1 1.16-1.048c.338-.241.64-.491.907-.75.266-.26.479-.546.637-.86.157-.319.236-.674.236-1.066 0-.416-.09-.78-.27-1.094a1.87 1.87 0 0 0-.726-.723 1.993 1.993 0 0 0-.996-.253c-.354 0-.689.088-1.005.262a1.994 1.994 0 0 0-.776.76c-.2.331-.31.744-.326 1.238H14c.027-1.205.289-2.2.784-2.983a4.614 4.614 0 0 1 1.968-1.762c.817-.392 1.718-.588 2.703-.588 1.084 0 2.042.199 2.875.597a4.563 4.563 0 0 1 1.96 1.708c.473.747.71 1.648.71 2.703 0 .705-.106 1.331-.319 1.88a4.641 4.641 0 0 1-.873 1.446c-.376.416-.82.792-1.331 1.13-.43.283-.784.578-1.062.886a3.067 3.067 0 0 0-.613 1.066c-.13.404-.198.901-.204 1.492v.307h-3.095ZM19.12 29c-.544 0-1.01-.21-1.396-.633a2.2 2.2 0 0 1-.564-1.536 2.155 2.155 0 0 1 .564-1.519c.386-.422.852-.633 1.396-.633.517 0 .972.211 1.364.633.392.422.59.928.596 1.519-.005.397-.1.762-.286 1.093-.18.326-.416.588-.71.787-.294.193-.615.289-.964.289Z"/></symbol>
</svg>
