<svg width="15" height="15" fill="none" xmlns="http://www.w3.org/2000/svg"><path d="M8.72 9.737H.973V7.273h7.663c.578 0 1.052-.085 1.42-.256.37-.17.643-.412.818-.724.175-.313.263-.682.263-1.108 0-.417-.088-.793-.263-1.13a1.928 1.928 0 00-.803-.802c-.36-.199-.81-.298-1.35-.298H6.094V15H3.039V.455H8.72c1.15 0 2.135.206 2.954.617.824.408 1.454.966 1.89 1.677.435.705.65 1.505.646 2.4.005.938-.216 1.75-.66 2.436-.446.687-1.08 1.217-1.904 1.591-.824.374-1.8.561-2.926.561zm.548.938v2.464H.972v-2.464h8.296z" fill="#000"/></svg>