<svg width="156" height="96" fill="none" xmlns="http://www.w3.org/2000/svg"><path d="M11.335 37.426c-1.988 0-3.79-.511-5.403-1.534-1.602-1.034-2.875-2.551-3.818-4.551-.932-2.012-1.398-4.477-1.398-7.398 0-3 .483-5.494 1.449-7.483.966-2 2.25-3.494 3.852-4.483a9.87 9.87 0 015.301-1.5c1.466 0 2.688.25 3.665.75.989.489 1.784 1.102 2.386 1.841.614.728 1.08 1.443 1.398 2.148h.222V2.09h7.244V37h-7.159v-4.193h-.307c-.34.727-.824 1.449-1.449 2.165-.613.704-1.415 1.29-2.403 1.755-.977.466-2.17.7-3.58.7zm2.301-5.778c1.17 0 2.16-.319 2.966-.955.819-.648 1.444-1.551 1.875-2.71.444-1.16.665-2.517.665-4.074s-.216-2.909-.648-4.057c-.431-1.148-1.056-2.034-1.875-2.659-.818-.625-1.812-.937-2.982-.937-1.194 0-2.2.323-3.018.971-.818.648-1.437 1.546-1.858 2.694-.42 1.147-.63 2.477-.63 3.988 0 1.523.21 2.87.63 4.04.432 1.159 1.052 2.068 1.858 2.727.819.648 1.824.972 3.018.972zm30.5 5.863c-2.694 0-5.012-.545-6.956-1.636-1.931-1.102-3.42-2.66-4.465-4.67-1.046-2.023-1.569-4.415-1.569-7.177 0-2.693.523-5.056 1.569-7.09 1.045-2.035 2.517-3.62 4.414-4.756 1.91-1.136 4.148-1.705 6.716-1.705 1.728 0 3.336.279 4.824.835a10.7 10.7 0 013.92 2.472c1.126 1.102 2 2.489 2.626 4.16.625 1.658.937 3.602.937 5.829v1.994H34.044v-4.5h15.273c0-1.045-.227-1.971-.682-2.778a4.884 4.884 0 00-1.892-1.892c-.795-.466-1.722-.7-2.778-.7-1.103 0-2.08.256-2.932.768-.841.5-1.5 1.176-1.977 2.028-.478.841-.722 1.779-.733 2.813v4.278c0 1.296.238 2.415.715 3.358.49.943 1.177 1.67 2.063 2.182.886.511 1.938.767 3.153.767.807 0 1.546-.114 2.216-.341a4.6 4.6 0 001.722-1.023 4.447 4.447 0 001.09-1.67L56 29.5c-.341 1.614-1.04 3.023-2.097 4.227-1.045 1.194-2.398 2.125-4.057 2.796-1.647.659-3.55.988-5.71.988zm38.539-19.227l-6.648.41a3.436 3.436 0 00-.733-1.535c-.375-.466-.87-.835-1.483-1.108-.602-.284-1.324-.426-2.165-.426-1.125 0-2.073.239-2.846.716-.773.466-1.16 1.09-1.16 1.875 0 .625.25 1.153.75 1.585.5.432 1.359.779 2.575 1.04l4.738.954c2.546.523 4.443 1.364 5.693 2.523 1.25 1.16 1.875 2.682 1.875 4.568 0 1.716-.505 3.222-1.517 4.517-1 1.296-2.375 2.307-4.125 3.035-1.738.715-3.744 1.073-6.017 1.073-3.466 0-6.227-.721-8.284-2.164-2.045-1.455-3.244-3.432-3.596-5.932l7.142-.375c.216 1.057.738 1.863 1.568 2.42.83.546 1.892.818 3.187.818 1.273 0 2.296-.244 3.069-.732.784-.5 1.181-1.143 1.193-1.927-.012-.659-.29-1.198-.836-1.619-.545-.432-1.386-.761-2.522-.989l-4.534-.903c-2.557-.511-4.46-1.398-5.71-2.66-1.24-1.26-1.858-2.869-1.858-4.823 0-1.682.454-3.13 1.363-4.347.92-1.216 2.21-2.153 3.87-2.812 1.67-.66 3.624-.989 5.863-.989 3.307 0 5.91.7 7.807 2.097 1.909 1.398 3.023 3.301 3.34 5.71zM87.844 37V10.818h7.261V37h-7.261zm3.648-29.557c-1.08 0-2.006-.358-2.779-1.074-.761-.727-1.142-1.596-1.142-2.608 0-1 .38-1.858 1.142-2.574.773-.727 1.7-1.09 2.779-1.09 1.08 0 2 .363 2.761 1.09.773.716 1.16 1.574 1.16 2.574 0 1.012-.387 1.881-1.16 2.608-.761.716-1.682 1.074-2.761 1.074zm21.225 39.92c-2.352 0-4.369-.323-6.051-.971-1.67-.636-3-1.506-3.988-2.608-.989-1.102-1.631-2.34-1.926-3.716l6.715-.903a4.41 4.41 0 00.972 1.466c.443.454 1.028.818 1.756 1.09.738.285 1.636.427 2.693.427 1.579 0 2.881-.387 3.903-1.16 1.034-.76 1.551-2.04 1.551-3.835v-4.79h-.306c-.319.728-.796 1.415-1.432 2.063-.637.648-1.455 1.176-2.455 1.585-1 .41-2.193.614-3.579.614-1.966 0-3.756-.455-5.37-1.364-1.602-.92-2.88-2.324-3.835-4.21-.943-1.898-1.415-4.295-1.415-7.193 0-2.966.483-5.443 1.449-7.432.966-1.988 2.25-3.477 3.853-4.466 1.613-.988 3.38-1.483 5.301-1.483 1.466 0 2.693.25 3.681.75.989.489 1.785 1.102 2.387 1.841.613.728 1.085 1.443 1.415 2.148h.272v-4.398h7.211v26.438c0 2.227-.546 4.09-1.637 5.59s-2.602 2.626-4.534 3.376c-1.92.761-4.131 1.142-6.631 1.142zm.154-16.192c1.17 0 2.159-.29 2.966-.87.818-.59 1.443-1.432 1.875-2.523.443-1.102.665-2.42.665-3.954 0-1.534-.216-2.864-.648-3.989-.432-1.136-1.057-2.017-1.875-2.642-.818-.625-1.813-.937-2.983-.937-1.193 0-2.199.323-3.017.971-.818.637-1.438 1.523-1.858 2.66-.421 1.136-.631 2.448-.631 3.937 0 1.511.21 2.818.631 3.92.432 1.091 1.051 1.938 1.858 2.54.818.591 1.824.887 3.017.887zm25.687-9.307V37h-7.261V10.818h6.92v4.62h.307a7.305 7.305 0 012.915-3.614c1.364-.898 3.017-1.347 4.96-1.347 1.818 0 3.404.398 4.756 1.194 1.352.795 2.403 1.931 3.153 3.409.75 1.466 1.125 3.216 1.125 5.25V37h-7.261V21.625c.011-1.602-.398-2.852-1.227-3.75-.83-.91-1.972-1.364-3.426-1.364-.978 0-1.841.21-2.591.631-.739.42-1.319 1.034-1.739 1.841-.409.795-.619 1.756-.631 2.88zM34.102 77.784v5.761h-15.92v-5.76h15.92zm18.017 17.727c-2.648 0-4.938-.562-6.87-1.687-1.92-1.136-3.403-2.716-4.449-4.739-1.045-2.034-1.568-4.392-1.568-7.074 0-2.704.523-5.068 1.569-7.09 1.045-2.035 2.528-3.614 4.448-4.74 1.932-1.135 4.222-1.704 6.87-1.704 2.648 0 4.931.569 6.852 1.705 1.932 1.125 3.42 2.704 4.466 4.739 1.045 2.022 1.568 4.386 1.568 7.09 0 2.682-.523 5.04-1.568 7.074-1.045 2.023-2.534 3.603-4.466 4.739-1.92 1.125-4.204 1.687-6.852 1.687zm.034-5.625c1.204 0 2.21-.34 3.017-1.022.807-.694 1.415-1.637 1.824-2.83.42-1.193.63-2.551.63-4.074 0-1.522-.21-2.88-.63-4.074-.41-1.193-1.017-2.136-1.824-2.83-.807-.692-1.813-1.039-3.017-1.039-1.216 0-2.239.347-3.068 1.04-.819.693-1.438 1.636-1.858 2.83-.41 1.192-.614 2.55-.614 4.073 0 1.523.205 2.88.614 4.074.42 1.193 1.04 2.136 1.858 2.83.83.681 1.852 1.022 3.068 1.022zm27.221 5.54c-1.988 0-3.79-.511-5.403-1.534-1.602-1.034-2.875-2.551-3.818-4.551-.932-2.011-1.398-4.477-1.398-7.398 0-3 .483-5.494 1.449-7.483.966-2 2.25-3.494 3.852-4.483a9.87 9.87 0 015.301-1.5c1.466 0 2.688.25 3.665.75.989.489 1.784 1.102 2.386 1.841.614.728 1.08 1.443 1.398 2.148h.222V60.09h7.244V95h-7.159v-4.193h-.307c-.34.727-.824 1.449-1.449 2.165-.613.704-1.414 1.29-2.403 1.755-.977.466-2.17.7-3.58.7zm2.302-5.778c1.17 0 2.159-.319 2.965-.955.819-.647 1.444-1.551 1.875-2.71.444-1.16.665-2.517.665-4.074s-.216-2.909-.647-4.057c-.432-1.148-1.057-2.034-1.876-2.659-.818-.625-1.812-.937-2.983-.937-1.193 0-2.198.323-3.016.971-.819.648-1.438 1.546-1.859 2.694-.42 1.147-.63 2.477-.63 3.988 0 1.523.21 2.87.63 4.04.432 1.159 1.052 2.068 1.859 2.727.818.648 1.823.972 3.016.972zm28.214 5.778c-1.989 0-3.79-.511-5.403-1.534-1.603-1.034-2.875-2.551-3.819-4.551-.931-2.011-1.397-4.477-1.397-7.398 0-3 .483-5.494 1.449-7.483.965-2 2.25-3.494 3.852-4.483a9.87 9.87 0 015.301-1.5c1.466 0 2.687.25 3.665.75.988.489 1.784 1.102 2.386 1.841.614.728 1.08 1.443 1.398 2.148h.221V60.09h7.245V95h-7.159v-4.193h-.307c-.341.727-.824 1.449-1.449 2.165-.614.704-1.415 1.29-2.403 1.755-.978.466-2.171.7-3.58.7zm2.301-5.778c1.171 0 2.159-.319 2.966-.955.818-.647 1.443-1.551 1.875-2.71.443-1.16.665-2.517.665-4.074s-.216-2.909-.648-4.057c-.432-1.148-1.057-2.034-1.875-2.659-.818-.625-1.812-.937-2.983-.937-1.193 0-2.199.323-3.017.971-.818.648-1.437 1.546-1.858 2.694-.42 1.147-.631 2.477-.631 3.988 0 1.523.211 2.87.631 4.04.432 1.159 1.051 2.068 1.858 2.727.818.648 1.824.972 3.017.972zm22.811 5.795c-1.125 0-2.091-.397-2.897-1.193-.796-.807-1.194-1.773-1.194-2.898 0-1.113.398-2.068 1.194-2.863.806-.796 1.772-1.194 2.897-1.194 1.091 0 2.046.398 2.864 1.194.818.795 1.227 1.75 1.227 2.863a3.85 3.85 0 01-.579 2.063 4.414 4.414 0 01-1.483 1.483 3.907 3.907 0 01-2.029.545z" fill="#000"/></svg>